<svg width="57" height="55" viewBox="0 0 57 55" fill="none" xmlns="http://www.w3.org/2000/svg">
<path d="M26.462 37.4305C24.8051 37.4305 23.462 38.7737 23.462 40.4305V53H33.135V40.4305C33.135 38.7737 31.7918 37.4305 30.135 37.4305H26.462Z" fill="#956348"/>
<path d="M10.6742 25.454C10.089 26.0193 9.75856 26.798 9.75856 27.6117V50C9.75856 51.6569 11.1017 53 12.7586 53H23.462V40.4305C23.462 38.7737 24.8051 37.4305 26.462 37.4305H30.135C31.7918 37.4305 33.135 38.7737 33.135 40.4305V53H44.2414C45.8983 53 47.2414 51.6569 47.2414 50V27.6307C47.2414 26.8059 46.9018 26.0175 46.3025 25.4508L30.3818 10.3983C29.2163 9.29631 27.3901 9.30612 26.2364 10.4206L10.6742 25.454Z" fill="#DBB9A6"/>
<path d="M14.1459 14.636V11.0757C14.1459 9.61371 12.9607 8.42857 11.4988 8.42857C10.0369 8.42857 8.85171 9.61371 8.85171 11.0757V19.7369L14.1459 14.636Z" fill="#A28989"/>
<path d="M23.462 53H12.7586C11.1017 53 9.75856 51.6569 9.75856 50V27.6117C9.75856 26.798 10.089 26.0193 10.6742 25.454L26.2364 10.4206C27.3901 9.30612 29.2163 9.29631 30.3818 10.3983L46.3025 25.4508C46.9018 26.0175 47.2414 26.8059 47.2414 27.6307V50C47.2414 51.6569 45.8983 53 44.2414 53H33.135M23.462 53V40.4305C23.462 38.7737 24.8051 37.4305 26.462 37.4305H30.135C31.7918 37.4305 33.135 38.7737 33.135 40.4305V53M23.462 53H33.135M2 26.3386L8.85171 19.7369M55 26.3386L30.3793 2.97461C29.2153 1.87005 27.3883 1.87699 26.2327 2.99036L14.1459 14.636M14.1459 14.636V11.0757C14.1459 9.61371 12.9607 8.42857 11.4988 8.42857V8.42857C10.0369 8.42857 8.85171 9.61371 8.85171 11.0757V19.7369M14.1459 14.636L8.85171 19.7369" stroke="black" stroke-width="3"/>
</svg>
