<svg width="60" height="60" viewBox="0 0 60 60" fill="none" xmlns="http://www.w3.org/2000/svg">
<rect x="0.5" y="0.5" width="59" height="59" rx="9.5" stroke="#474747"/>
<path d="M14.0505 28.1263C13.9881 27.8591 13.9835 27.5803 14.0371 27.311C14.0906 27.0417 14.201 26.789 14.3597 26.572C14.5184 26.355 14.7213 26.1795 14.9531 26.0588C15.1848 25.938 15.4393 25.8752 15.6971 25.8752H45.3029C45.5607 25.8752 45.8152 25.938 46.0469 26.0588C46.2787 26.1795 46.4816 26.355 46.6403 26.572C46.799 26.789 46.9094 27.0417 46.963 27.311C47.0165 27.5803 47.0119 27.8591 46.9495 28.1263L43.8752 41.2542C43.6916 42.0384 43.2678 42.7347 42.6711 43.2322C42.0744 43.7297 41.339 44 40.5819 44.0002H20.4181C19.661 44 18.9256 43.7297 18.3289 43.2322C17.7322 42.7347 17.3084 42.0384 17.1248 41.2542L14.0505 28.1281V28.1263Z" stroke="white" stroke-linecap="round" stroke-linejoin="round"/>
<path d="M20.3145 25.875L27.1048 15" stroke="white" stroke-linecap="round" stroke-linejoin="round"/>
<path d="M40.6848 25.875L33.8945 15" stroke="white" stroke-linecap="round" stroke-linejoin="round"/>
</svg>
