<svg width="60" height="60" viewBox="0 0 60 60" fill="none" xmlns="http://www.w3.org/2000/svg">
<rect x="0.5" y="0.5" width="59" height="59" rx="9.5" stroke="#474747"/>
<path d="M27.3082 38.7499H36.8V19.5C36.8 18.5717 36.4418 17.6815 35.8042 17.0251C35.1665 16.3687 34.3017 16 33.4 16H16.4C15.4983 16 14.6335 16.3687 13.9958 17.0251C13.3582 17.6815 13 18.5717 13 19.5V36.9999C13 37.4641 13.1791 37.9092 13.4979 38.2374C13.8167 38.5655 14.2491 38.7499 14.7 38.7499H15.8125" stroke="white" stroke-linecap="round" stroke-linejoin="round"/>
<path d="M47.0008 36.9999V29.9999C47.0008 28.1434 46.2844 26.363 45.0091 25.0502C43.7339 23.7375 42.0043 23 40.2008 23H36.8008V38.7499H45.3008C45.7516 38.7499 46.1841 38.5655 46.5029 38.2374C46.8217 37.9092 47.0008 37.4641 47.0008 36.9999Z" stroke="white" stroke-linecap="round" stroke-linejoin="round"/>
<path d="M34 39C34 40.3261 34.5795 41.5979 35.6109 42.5355C36.6424 43.4732 38.0413 44 39.5 44C40.9587 44 42.3576 43.4732 43.3891 42.5355C44.4205 41.5979 45 40.3261 45 39H34Z" stroke="white" stroke-linecap="round" stroke-linejoin="round"/>
<path d="M21.5 44C24.5376 44 27 41.5376 27 38.5C27 35.4624 24.5376 33 21.5 33C18.4624 33 16 35.4624 16 38.5C16 41.5376 18.4624 44 21.5 44Z" stroke="white" stroke-linecap="round" stroke-linejoin="round"/>
</svg>
